<?xml version="1.0" standalone="no"?>
<!DOCTYPE svg PUBLIC "-//W3C//DTD SVG 20010904//EN"
 "http://www.w3.org/TR/2001/REC-SVG-20010904/DTD/svg10.dtd">
<svg version="1.0" xmlns="http://www.w3.org/2000/svg"
 width="274.000000pt" height="288.000000pt" viewBox="0 0 274.000000 288.000000"
 preserveAspectRatio="xMidYMid meet">

<g transform="translate(0.000000,288.000000) scale(0.100000,-0.100000)"
fill="#000000" stroke="none">
<path d="M1347 2480 c-4 -14 -25 -106 -47 -205 -52 -236 -99 -430 -110 -460
-5 -13 -27 -33 -49 -45 l-41 -20 -110 55 c-60 30 -110 52 -109 48 0 -5 24 -55
53 -111 l52 -104 -24 -49 c-20 -40 -31 -50 -61 -58 -20 -5 -162 -37 -316 -71
-316 -70 -337 -75 -315 -83 8 -3 87 -21 175 -41 209 -47 403 -92 451 -105 32
-9 44 -20 65 -58 l26 -48 -59 -114 -60 -113 115 59 114 60 46 -23 c25 -13 48
-32 51 -41 10 -34 65 -279 106 -473 23 -107 44 -202 47 -210 3 -8 11 10 18 40
151 682 141 647 186 676 21 13 43 24 49 24 6 0 60 -25 121 -56 61 -30 109 -52
107 -47 -2 4 -27 55 -57 112 l-53 104 23 49 c18 40 29 50 58 58 54 14 560 128
604 136 56 10 53 20 -11 33 -132 29 -627 142 -627 144 0 1 -11 24 -24 50 l-25
49 52 104 c29 57 52 107 52 110 0 3 -48 -20 -107 -52 l-106 -57 -46 24 -46 25
-23 94 c-37 156 -109 470 -125 545 -11 55 -15 65 -20 45z m60 -761 c111 -14
210 -92 259 -203 l27 -63 116 -27 c168 -40 169 -41 21 -46 l-135 -5 -7 -53
c-16 -106 -86 -199 -191 -250 l-64 -31 -33 -118 c-17 -65 -36 -125 -41 -133
-5 -9 -9 37 -9 118 l0 132 -30 0 c-46 0 -135 38 -189 80 -37 29 -59 59 -87
115 -25 50 -44 77 -58 81 -12 2 -73 18 -136 33 l-115 29 136 1 136 1 6 50 c3
27 15 70 26 95 28 63 115 147 176 170 28 11 53 24 57 29 4 6 14 44 23 86 9 41
24 102 33 135 l17 60 5 -140 5 -140 52 -6z"/>
<path d="M1282 1513 c-91 -45 -110 -164 -37 -238 58 -57 149 -59 205 -5 126
123 -11 321 -168 243z"/>
<path d="M1150 2395 c-252 -51 -496 -212 -639 -423 -84 -124 -148 -290 -167
-432 l-6 -48 43 9 c24 5 54 11 67 14 13 3 22 13 22 24 0 28 47 185 72 239 67
147 194 290 332 376 83 52 222 109 293 121 24 4 45 10 47 13 8 16 17 122 9
121 -4 0 -37 -7 -73 -14z"/>
<path d="M1470 2401 c0 -4 5 -33 11 -63 l11 -56 64 -15 c164 -41 304 -118 419
-232 130 -129 216 -281 250 -443 8 -35 16 -66 18 -69 8 -7 116 -31 120 -26 7
6 -21 141 -44 218 -56 186 -194 375 -369 506 -76 57 -239 134 -335 157 -108
27 -145 33 -145 23z"/>
<path d="M345 1234 c4 -22 17 -75 30 -119 82 -291 346 -565 753 -783 l113 -61
-6 67 c-4 37 -12 72 -19 79 -6 6 -65 44 -131 84 -327 196 -508 393 -585 634
-35 112 -35 112 -77 119 -21 4 -48 10 -61 13 -22 5 -23 4 -17 -33z"/>
<path d="M2291 1256 l-54 -11 -27 -85 c-37 -118 -73 -189 -141 -280 -102 -135
-256 -263 -472 -392 -79 -48 -119 -78 -122 -92 -16 -79 -23 -121 -20 -124 6
-6 178 90 275 153 152 98 219 151 317 247 150 146 241 294 288 468 26 98 30
131 18 129 -5 -1 -32 -6 -62 -13z"/>
</g>
</svg>
